Coordinates
version=1
nRows=7
nColumns=63
inDegrees=yes

Units are S.I. units (second, meters, Newtons, ...)
If the header above contains a line with 'inDegrees', this indicates whether rotational values are in degrees (yes) or radians (no).

endheader
time	pelvis_tilt	pelvis_list	pelvis_rotation	pelvis_tx	pelvis_ty	pelvis_tz	hip_flexion_r	hip_adduction_r	hip_rotation_r	knee_angle_r	knee_angle_r_beta	ankle_angle_r	subtalar_angle_r	mtp_angle_r	hip_flexion_l	hip_adduction_l	hip_rotation_l	knee_angle_l	knee_angle_l_beta	ankle_angle_l	subtalar_angle_l	mtp_angle_l	L5_S1_Flex_Ext	L5_S1_Lat_Bending	L5_S1_axial_rotation	L4_L5_Flex_Ext	L4_L5_Lat_Bending	L4_L5_axial_rotation	L3_L4_Flex_Ext	L3_L4_Lat_Bending	L3_L4_axial_rotation	L2_L3_Flex_Ext	L2_L3_Lat_Bending	L2_L3_axial_rotation	L1_L2_Flex_Ext	L1_L2_Lat_Bending	L1_L2_axial_rotation	L1_T12_Flex_Ext	L1_T12_Lat_Bending	L1_T12_axial_rotation	Abs_r3	Abs_r2	Abs_r1	Abs_t1	Abs_t2	neck_flexion	neck_bending	neck_rotation	arm_flex_r	arm_add_r	arm_rot_r	elbow_flex_r	pro_sup_r	wrist_flex_r	wrist_dev_r	arm_flex_l	arm_add_l	arm_rot_l	elbow_flex_l	pro_sup_l	wrist_flex_l	wrist_dev_l
     11.64200000	    -63.97964150	     -5.79614842	     -1.96882187	     -0.31187546	      1.14037638	      0.04208496	    105.52394230	     -6.49285276	     -7.35880359	     92.51141101	      1.61462872	     11.41874280	     -4.46143552	      0.00000000	    106.22056251	     -3.74531611	      7.29855814	     50.99613638	      0.89005049	      9.66960812	      2.91279007	      0.00000000	     -0.10067164	      1.37653398	      0.61999664	     -0.18695730	      1.83079019	      0.65874643	     -0.16539343	      3.34690471	      0.65874643	     -0.11505761	      3.34690471	      0.54249706	     -0.09348368	      2.80702809	      0.50374727	     -0.05752377	      2.13225113	      0.46499748	     -0.71908744	     15.57162767	      3.44823533	      0.00000000	      0.00000000	      0.00000000	      0.00000000	      0.00000000	     67.07353285	    -10.07379851	      1.61328465	     50.23989433	     66.94706002	      0.00000000	      5.00000014	     63.39412046	     -5.98167482	      0.49087394	     43.63092757	     66.83828124	      0.00000000	      5.00000014
     11.65000000	    -63.92465836	     -5.95454365	     -2.73371852	     -0.31144086	      1.13957256	      0.04324828	    106.89009025	     -6.13631569	     -7.64738475	     94.88168963	      1.65599788	     12.41474290	     -4.59400964	      0.00000000	    104.50909544	     -4.73147184	      7.35211839	     48.60780757	      0.84836628	      8.57283538	      3.15580548	      0.00000000	     -0.10145268	      1.41902244	      0.76040575	     -0.18840777	      1.88729985	      0.80793111	     -0.16667661	      3.45021116	      0.80793111	     -0.11595027	      3.45021116	      0.66535503	     -0.09420896	      2.89367056	      0.61782967	     -0.05797006	      2.19806576	      0.57030431	     -0.72466636	     16.05226566	      4.22914864	      0.00000000	      0.00000000	      0.00000000	      0.00000000	      0.00000000	     67.14421027	    -10.03370175	      1.90758792	     50.18668046	     66.91989730	      0.00000000	      5.00000014	     63.17232906	     -6.01009533	      0.29058177	     43.67367358	     66.75878931	      0.00000000	      5.00000014
     11.65800000	    -63.84919490	     -5.85470415	     -3.15218232	     -0.31099787	      1.13877976	      0.04402411	    108.32634022	     -6.08091768	     -7.66530007	     97.16072130	      1.69577449	     13.76325823	     -4.59224429	      0.00000000	    102.71578980	     -5.48019496	      6.81821842	     46.26240188	      0.80743123	      7.39502900	      3.35208103	      0.00000000	     -0.10284474	      1.42731028	      0.82685351	     -0.19099297	      1.89832267	      0.87853186	     -0.16896363	      3.47036222	      0.87853186	     -0.11754126	      3.47036222	      0.72349682	     -0.09550163	      2.91057112	      0.67181848	     -0.05876549	      2.21090362	      0.62014013	     -0.73460971	     16.14601936	      4.59871118	      0.00000000	      0.00000000	      0.00000000	      0.00000000	      0.00000000	     67.21458129	    -10.05255120	      2.61918405	     50.13152134	     66.95114100	      0.00000000	      5.00000014	     62.96107454	     -6.02661217	     -0.27340703	     43.77023652	     66.65020672	      0.00000000	      5.00000014
     11.66700000	    -63.84519075	     -6.00480704	     -3.91266662	     -0.31043218	      1.13817170	      0.04498984	    109.71505011	     -5.81504556	     -8.15923010	     99.08893880	      1.72942823	     14.66717131	     -4.77691903	      0.00000000	    101.04953148	     -6.45949085	      6.71757447	     44.11851199	      0.77001330	      6.47747550	      3.46921796	      0.00000000	     -0.10160665	      1.47107686	      0.95556272	     -0.18869370	      1.95653223	      1.01528539	     -0.16692956	      3.57677628	      1.01528539	     -0.11612624	      3.57677628	      0.83611738	     -0.09435193	      2.99981994	      0.77639471	     -0.05805804	      2.27869806	      0.71667204	     -0.72576611	     16.64111568	      5.31455319	      0.00000000	      0.00000000	      0.00000000	      0.00000000	      0.00000000	     67.31859668	     -9.95369136	      2.83093549	     50.03241998	     66.94006460	      0.00000000	      5.00000014	     62.71861003	     -6.09042359	     -0.42452376	     43.86624409	     66.59893599	      0.00000000	      5.00000014
     11.67500000	    -63.82893887	     -5.84976961	     -4.30328894	     -0.30993679	      1.13769976	      0.04563912	    111.15600454	     -5.81397494	     -8.29220760	    100.85394320	      1.76023337	     15.98002185	     -4.94528408	      0.00000000	     99.30665814	     -7.17897057	      5.87140082	     41.97086392	      0.73252977	      5.37456176	      3.50220018	      0.00000000	     -0.10326415	      1.47336793	      0.99919536	     -0.19177185	      1.95957935	      1.06164507	     -0.16965267	      3.58234678	      1.06164507	     -0.11802060	      3.58234678	      0.87429594	     -0.09589109	      3.00449188	      0.81184623	     -0.05900514	      2.28224692	      0.74939652	     -0.73760550	     16.66703269	      5.55722485	      0.00000000	      0.00000000	      0.00000000	      0.00000000	      0.00000000	     67.44518548	     -9.84347816	      3.48809394	     49.89631884	     66.98660497	      0.00000000	      5.00000014	     62.49543029	     -6.19275533	     -0.97035915	     44.09960960	     66.51075066	      0.00000000	      5.00000014
     11.68300000	    -63.87719502	     -5.93230465	     -4.92928816	     -0.30934516	      1.13744886	      0.04630288	    112.53086781	     -5.70126674	     -8.80600225	    102.27842803	      1.78509532	     16.84672827	     -5.09184250	      0.00000000	     97.70685422	     -8.00850999	      5.56668573	     40.04271024	      0.69887714	      4.59574185	      3.55762843	      0.00000000	     -0.10185424	      1.51054933	      1.08972969	     -0.18915352	      2.00903061	      1.15783780	     -0.16733634	      3.67274964	      1.15783780	     -0.11640922	      3.67274964	      0.95351348	     -0.09458185	      3.08031219	      0.88540538	     -0.05819952	      2.33984091	      0.81729727	     -0.72753469	     17.08763612	      6.06074964	      0.00000000	      0.00000000	      0.00000000	      0.00000000	      0.00000000	     67.57948758	     -9.68845910	      3.72279744	     49.78520958	     66.94611011	      0.00000000	      5.00000014	     62.27027749	     -6.32328316	     -1.14805769	     44.18939417	     66.42683824	      0.00000000	      5.00000014
     11.69200000	    -63.91053010	     -5.73900003	     -5.19048763	     -0.30890639	      1.13729222	      0.04664682	    113.94210379	     -5.82364095	     -8.94083148	    103.53505512	      1.80702760	     18.04823582	     -5.18437810	      0.00000000	     96.11446908	     -8.57223037	      4.45778742	     38.23406200	      0.66731027	      3.61388580	      3.66035578	      0.00000000	     -0.10227519	      1.50969157	      1.09742393	     -0.18993526	      2.00788978	      1.16601293	     -0.16802792	      3.67066408	      1.16601293	     -0.11689032	      3.67066408	      0.96024594	     -0.09497275	      3.07856304	      0.89165694	     -0.05844005	      2.33851224	      0.82306795	     -0.73054149	     17.07793295	      6.10354268	      0.00000000	      0.00000000	      0.00000000	      0.00000000	      0.00000000	     67.77228322	     -9.51461711	      4.37025917	     49.55628481	     66.97140788	      0.00000000	      5.00000014	     62.04704805	     -6.49504704	     -1.67464771	     44.43784529	     66.32129711	      0.00000000	      5.00000014
